<svg xmlns="http://www.w3.org/2000/svg" viewBox="0 0 250 250">
    <path
        stroke-width="1"
        stroke="#000000"
        fill="none"
        d="m 100 100

           c -79.873  -70.722
              11.121 -118.450
              22.253  -63.137

              20.708  -63.445
             104.700   -8.091
              17.596   62.620

             106.520  -57.631
             141.050   54.011
              57.962   42.954

              64.382   27.210
             -26.826  106.170
             -69.031   -9.571

              -2.588   16.769
              14.981   52.402
              19.335   56.571

               3.116    3.448
               4.951    7.597
               1.442   11.238

              -8.026    8.216
             -27.101    4.880
             -29.613   -0.618

             -10.127  -24.307
              -8.660  -39.005
              -5.175  -68.313

             -28.256   91.015
            -139.770   54.862
             -79.698    1.553

             -58.924    2.796
             -41.144 -101.040
              64.929  -33.297"
    />
</svg>
